<?xml version="1.0" encoding="utf-8"?><!-- Uploaded to: SVG Repo, www.svgrepo.com, Generator: SVG Repo Mixer Tools -->
<svg width="800px" height="800px" viewBox="-0.5 0 25 25" fill="none" xmlns="http://www.w3.org/2000/svg">
<path d="M12 22.9199C17.5228 22.9199 22 18.4428 22 12.9199C22 7.39707 17.5228 2.91992 12 2.91992C6.47715 2.91992 2 7.39707 2 12.9199C2 18.4428 6.47715 22.9199 12 22.9199Z" stroke="#000000" stroke-width="1.5" stroke-linecap="round" stroke-linejoin="round"/>
<path d="M12.7002 17.1099V18.21C12.7002 18.3877 12.6296 18.5582 12.504 18.6838C12.3783 18.8095 12.2079 18.8799 12.0302 18.8799C11.8525 18.8799 11.6821 18.8095 11.5565 18.6838C11.4308 18.5582 11.3602 18.3877 11.3602 18.21V17.0801C10.9165 17.0072 10.4917 16.8468 10.1106 16.6082C9.72943 16.3695 9.39958 16.0573 9.14023 15.6899C9.04577 15.57 8.99311 15.4226 8.99023 15.27C8.99014 15.1834 9.00762 15.0975 9.04164 15.0178C9.07566 14.9382 9.12551 14.8662 9.18816 14.8064C9.2508 14.7466 9.32494 14.7 9.40608 14.6697C9.48723 14.6393 9.5737 14.6258 9.66023 14.6299C9.74611 14.6294 9.83102 14.648 9.90884 14.6843C9.98667 14.7206 10.0554 14.774 10.1102 14.8401C10.4301 15.258 10.8643 15.574 11.3602 15.75V13.21C10.0302 12.69 9.36023 11.9099 9.36023 10.8999C9.38027 10.3592 9.59279 9.84343 9.95949 9.44556C10.3262 9.04769 10.8229 8.79397 11.3602 8.72998V7.62988C11.3602 7.45219 11.4308 7.2819 11.5565 7.15625C11.6821 7.0306 11.8525 6.95996 12.0302 6.95996C12.2079 6.95996 12.3783 7.0306 12.504 7.15625C12.6296 7.2819 12.7002 7.45219 12.7002 7.62988V8.71997C13.0723 8.77828 13.4289 8.91103 13.7485 9.11035C14.0681 9.30967 14.3442 9.57137 14.5602 9.87988C14.6555 9.99235 14.7117 10.1329 14.7202 10.28C14.7229 10.3657 14.7083 10.451 14.6774 10.531C14.6464 10.611 14.5997 10.684 14.54 10.7456C14.4803 10.8072 14.4088 10.856 14.3298 10.8894C14.2509 10.9228 14.166 10.94 14.0802 10.9399C13.9906 10.9394 13.9022 10.9196 13.8211 10.8816C13.74 10.8436 13.668 10.7884 13.6102 10.72C13.3718 10.4221 13.0574 10.1942 12.7002 10.0601V12.3101L12.9502 12.4099C14.2202 12.9099 15.0102 13.63 15.0102 14.77C14.9954 15.3808 14.7481 15.9629 14.3189 16.3977C13.8897 16.8325 13.3108 17.0871 12.7002 17.1099ZM11.3602 11.73V10.0999C11.1988 10.1584 11.0599 10.2662 10.963 10.408C10.8662 10.5497 10.8162 10.7183 10.8202 10.8899C10.8185 11.0673 10.8688 11.2414 10.9647 11.3906C11.0607 11.5399 11.1981 11.6579 11.3602 11.73ZM13.5502 14.8C13.5502 14.32 13.2202 14.03 12.7002 13.8V15.8C12.9387 15.7639 13.156 15.6427 13.3122 15.459C13.4684 15.2752 13.553 15.0412 13.5502 14.8Z" fill="#000000"/>
</svg>