<?xml version="1.0" ?>
<!-- Uploaded to: SVG Repo, www.svgrepo.com, Generator: SVG Repo Mixer Tools -->
<svg width="800px" height="800px" viewBox="0 0 20 20" version="1.1" xmlns="http://www.w3.org/2000/svg">
<g id="layer1">
<path d="M 0 2 L 0 18 L 20 18 L 20 2 L 0 2 z M 1 3 L 19 3 L 19 5 L 1 5 L 1 3 z M 1 6 L 19 6 L 19 17 L 8 17 L 8 15 L 2 15 L 2 17 L 1 17 L 1 6 z M 2 8 L 2 14 L 8 14 L 8 8 L 2 8 z M 10 8 L 10 9 L 15 9 L 15 8 L 10 8 z M 3 9 L 7 9 L 7 13 L 3 13 L 3 9 z M 10 10 L 10 11 L 17 11 L 17 10 L 10 10 z M 10 12 L 10 13 L 13 13 L 13 12 L 10 12 z M 10 15 L 10 16 L 15 16 L 15 15 L 10 15 z M 3 16 L 7 16 L 7 17 L 3 17 L 3 16 z " style="fill:#222222; fill-opacity:1; stroke:none; stroke-width:0px;"/>
</g>
</svg>