<?xml version="1.0" encoding="iso-8859-1"?>
<!-- Uploaded to: SVG Repo, www.svgrepo.com, Generator: SVG Repo Mixer Tools -->
<!DOCTYPE svg PUBLIC "-//W3C//DTD SVG 1.1//EN" "http://www.w3.org/Graphics/SVG/1.1/DTD/svg11.dtd">
<svg fill="#000000" height="800px" width="800px" version="1.1" id="Capa_1" xmlns="http://www.w3.org/2000/svg" xmlns:xlink="http://www.w3.org/1999/xlink" 
	 viewBox="0 0 467.66 467.66" xml:space="preserve">
<path d="M467.451,189.327L428.066,25.835c-0.812-3.369-3.825-5.744-7.291-5.744H46.885c-3.466,0-6.479,2.375-7.291,5.744
	L0.209,189.327c-0.539,2.234-0.022,4.592,1.399,6.397c1.422,1.805,3.594,2.859,5.892,2.859h23.095v241.485
	c0,4.142,3.357,7.5,7.5,7.5h391.48c4.143,0,7.5-3.358,7.5-7.5V198.584h23.085c2.298,0,4.47-1.054,5.892-2.859
	C467.474,193.919,467.99,191.561,467.451,189.327z M303.448,314.077c-4.143,0-7.5,3.358-7.5,7.5v30.582h-6.749v-55.497
	c0-18.195,14.803-32.998,32.998-32.998s32.998,14.803,32.998,32.998v55.497h-6.749v-30.582c0-4.142-3.357-7.5-7.5-7.5
	s-7.5,3.358-7.5,7.5v30.582h-22.498v-30.582C310.948,317.435,307.591,314.077,303.448,314.077z M322.197,248.664
	c-8.27,0-15.675-4.275-19.81-11.437l-4.87-8.436h49.359l-4.871,8.436C337.871,244.388,330.467,248.664,322.197,248.664z
	 M362.695,367.159c4.143,0,7.5-3.358,7.5-7.5v-62.997c0-17.725-9.665-33.225-23.995-41.538c3.457-2.848,6.45-6.334,8.796-10.397
	l11.366-19.686c1.34-2.32,1.34-5.179,0-7.5c-1.34-2.32-3.815-3.75-6.495-3.75h-75.34c-2.68,0-5.155,1.43-6.495,3.75
	s-1.34,5.179,0,7.5l11.365,19.686c2.346,4.063,5.339,7.549,8.796,10.397c-14.329,8.313-23.995,23.813-23.995,41.538v62.997
	c0,4.142,3.357,7.5,7.5,7.5h32.998v23.41h-73.362V198.584h155.83v191.985h-67.468v-23.41H362.695z M132.889,286.034
	c0.524-1.654,0.941-3.328,1.287-5.011h7.725c0.346,1.683,0.763,3.357,1.287,5.011l1.281,4.044h-12.861L132.889,286.034z
	 M150.65,241.17c-5.428,7.344-8.656,15.968-9.533,24.853h-6.158c-0.878-8.885-4.105-17.509-9.533-24.854l-9.149-12.378H159.8
	L150.65,241.17z M126.855,305.079h22.365l15.205,47.997h-52.776L126.855,305.079z M174.669,368.075c2.391,0,4.639-1.14,6.052-3.069
	c1.412-1.929,1.82-4.417,1.098-6.696l-24.332-76.806c-3.38-10.671-1.427-22.417,5.227-31.418l17.987-24.336
	c1.683-2.277,1.94-5.308,0.665-7.835c-1.275-2.528-3.865-4.123-6.696-4.123h-73.263c-2.831,0-5.422,1.595-6.696,4.123
	c-1.275,2.528-1.018,5.559,0.665,7.835l17.988,24.336c6.653,9.002,8.606,20.748,5.227,31.419L94.257,358.31
	c-0.723,2.279-0.314,4.767,1.098,6.696c1.413,1.929,3.661,3.069,6.052,3.069h29.132v22.493H70.505V198.584h155.83v191.985h-80.797
	v-22.493H174.669z M317.377,183.584L305.266,35.092h27.864l20.254,148.492H317.377z M302.327,183.584h-37.67L260.94,35.092h29.275
	L302.327,183.584z M249.651,183.584h-31.643l3.716-148.492h24.21L249.651,183.584z M203.003,183.584h-37.67l12.111-148.492h29.275
	L203.003,183.584z M150.283,183.584h-36.006L134.53,35.092h27.864L150.283,183.584z M99.137,183.584H63.241L91.636,35.092h27.755
	L99.137,183.584z M368.523,183.584L348.27,35.092h27.755l28.395,148.492H368.523z M52.793,35.092h23.572L47.97,183.584H17.022
	L52.793,35.092z M422.075,432.568H45.595V198.584h9.91v199.485c0,4.142,3.357,7.5,7.5,7.5h341.66c4.143,0,7.5-3.358,7.5-7.5V198.584
	h9.91V432.568z M419.691,183.584L391.295,35.092h23.572l35.771,148.492H419.691z"/>
</svg>